<?xml version="1.0" encoding="UTF-8"?>
<svg id="Layer_1" data-name="Layer 1" xmlns="http://www.w3.org/2000/svg" viewBox="0 0 467.32 103.36">
  <defs>
    <style>
      .cls-1 {
        fill: #46b1cb;
      }

      .cls-1, .cls-2, .cls-3 {
        stroke-width: 0px;
      }

      .cls-2 {
        fill: #47b2cb;
      }

      .cls-3 {
        fill: #fff;
      }
    </style>
  </defs>
  <g>
    <path class="cls-3" d="m107.87,73.51V20.33h-21.86v41.78c6.84,4.22,14.21,8,21.86,11.4Z"/>
    <path class="cls-3" d="m83.28,60.39l-9.37-40.06h-25.23v1.01c5.95,15.86,18.64,28.7,34.61,39.05Z"/>
    <path class="cls-3" d="m73.66,66.43l9.32,36.94h24.89v-22.71c-13.35-4.42-24.63-9.23-34.2-14.23Z"/>
    <path class="cls-3" d="m48.67,50.17v53.19h21.16v-38.99c-8.42-4.66-15.39-9.45-21.16-14.2Z"/>
  </g>
  <g>
    <path class="cls-3" d="m136.47,84.22v-41.33h.23l7.38,43.64c7.33,2.13,14.57,3.98,21.5,5.58l8.33-49.22h.23v51.11c7.98,1.68,15.38,3.01,21.86,4.05V20.33h-33.03l-7.56,50.82h-.23l-6.86-50.82h-33.72v56.05c7.18,2.92,14.54,5.53,21.86,7.84Z"/>
    <path class="cls-3" d="m114.61,82.79v20.57h21.86v-14.68c-7.8-1.85-15.08-3.82-21.86-5.9Z"/>
    <path class="cls-3" d="m144.77,90.57l2.16,12.79h16.75l1.5-8.86c-7.15-1.22-13.95-2.53-20.41-3.93Z"/>
    <path class="cls-3" d="m174.15,95.95v7.41h21.86v-4.47c-7.62-.89-14.9-1.87-21.86-2.94Z"/>
  </g>
  <path class="cls-3" d="m261.01,99.76c-.58-1.16-1.05-5.12-1.05-9.77v-6.86c0-4.88-.12-10.47-2.21-14.19-2.21-3.95-6.4-6.28-11.05-6.63v-.23c8.14-1.16,13.84-6.74,13.84-20s-6.86-21.75-22.91-21.75h-34.89v78.76c11.64,1.71,18.94,2.33,18.94,2.33-6.52-.53-12.83-1.12-18.94-1.77v3.71h23.26v-32.68h4.3c4.07,0,6.4,1.28,6.4,8.37,0,4.07.35,8.26.35,12.33s.23,10.12,1.74,11.98h24.65v-1.16c-1.05-.46-1.86-1.28-2.44-2.44Zm-31.63-44.42h-3.37v-18.26h2.68c5.23,0,8.61,1.63,8.61,8.49,0,8.02-4.07,9.77-7.91,9.77Z"/>
  <path class="cls-1" d="m24.07,0H.04s-7.67,82.79,200.73,99.58c0,0-175.37-14.91-176.7-99.58Z"/>
  <path class="cls-2" d="m272.15,70h26.65v4.27h-21.73v9.61h21.08v4.27h-21.08v10.72h22.19v4.27h-27.11v-33.15Z"/>
  <path class="cls-2" d="m329.99,70h5.29l-14.53,33.15h-5.25l-14.76-33.15h5.57l11.93,28.04,11.74-28.04Z"/>
  <path class="cls-2" d="m338.35,70h26.64v4.27h-21.72v9.61h21.08v4.27h-21.08v10.72h22.19v4.27h-27.11v-33.15Z"/>
  <path class="cls-2" d="m376.23,76.78h-.09v26.37h-4.92v-33.15h5.71l21.31,26.37h.09v-26.37h4.92v33.15h-5.71l-21.31-26.37Z"/>
  <path class="cls-2" d="m419.59,74.27h-12.54v-4.27h29.99v4.27h-12.53v28.88h-4.92v-28.88Z"/>
  <path class="cls-2" d="m442.75,91.86c.09,5.63,5.67,7.08,10.68,7.08s8.96-1.89,8.96-5.32c0-2.86-2.37-4.05-6.18-4.66l-7.52-1.19c-3.94-.62-9.84-2.11-9.84-8.22,0-5.72,4.78-9.54,13.28-9.54,6.64,0,13.65,2.29,14.12,9.85h-4.92c-.42-2.46-1.9-5.81-9.84-5.81-3.62,0-7.71,1.45-7.71,5.15,0,1.93,1.35,3.47,5.43,4.13l8.13,1.32c2.6.44,9.98,1.63,9.98,8.05,0,8-7.57,10.29-14.25,10.29-7.47,0-15.23-2.46-15.23-11.13h4.92Z"/>
</svg>